<svg xmlns="http://www.w3.org/2000/svg" width="100" height="100" id="cancel"><path d="M50 12c-21 0-38 17-38 38s17 38 38 38 38-17 38-38-17-38-38-38zm0 72c-18.8 0-34-15.2-34-34s15.2-34 34-34 34 15.2 34 34-15.2 34-34 34zm2.8-34 12.6-12.6c.8-.8.8-2 0-2.8-.8-.8-2-.8-2.8 0L50 47.2 37.4 34.6c-.8-.8-2-.8-2.8 0-.8.8-.8 2 0 2.8L47.2 50 34.6 62.6c-.8.8-.8 2 0 2.8.8.8 2 .8 2.8 0L50 52.8l12.6 12.6c.8.8 2 .8 2.8 0 .8-.8.8-2 0-2.8L52.8 50z"></path><path fill="#00F" d="M244-1070V614h-1784v-1684H244m8-8h-1800V622H252v-1700z"></path></svg>